<?xml version="1.0" encoding="utf-8"?>
<!-- Generator: Adobe Illustrator 15.0.0, SVG Export Plug-In . SVG Version: 6.00 Build 0)  -->
<!DOCTYPE svg PUBLIC "-//W3C//DTD SVG 1.1//EN" "http://www.w3.org/Graphics/SVG/1.1/DTD/svg11.dtd">
<svg version="1.1" id="Layer_1" xmlns="http://www.w3.org/2000/svg" xmlns:xlink="http://www.w3.org/1999/xlink" x="0px" y="0px"
	 width="187px" height="187px" viewBox="0 0 187 187" enable-background="new 0 0 187 187" xml:space="preserve">
<linearGradient id="SVGID_1_" gradientUnits="userSpaceOnUse" x1="-3.001" y1="93.334" x2="188.999" y2="93.334" gradientTransform="matrix(0 -1 1 0 -0.335 186.333)">
	<stop  offset="0.0245" style="stop-color:#8CC63F"/>
	<stop  offset="1" style="stop-color:#D9E021"/>
	<stop  offset="1" style="stop-color:#000000"/>
</linearGradient>
<rect x="-3.001" y="-2.666" fill="url(#SVGID_1_)" stroke="#000000" stroke-miterlimit="10" width="192" height="192"/>
<rect x="9.499" y="54.834" fill="#4D4D4D" width="119" height="77"/>
<text transform="matrix(1.7335 0 0 1 4.8901 42.0581)" fill="#4D4D4D" font-family="'AvenirNextCondensed-Heavy'" font-size="46">PAUL</text>
<text transform="matrix(1.5296 0 0 1 5.5 176.834)" fill="#4D4D4D" font-family="'AvenirNextCondensed-Heavy'" font-size="46">NORD</text>
<g>
	<g>
		<path fill="#8100FF" d="M109.875,198.236c0.414,0,2.205-0.805,1.249-0.805C110.709,197.432,108.918,198.236,109.875,198.236
			L109.875,198.236z"/>
	</g>
</g>
<text transform="matrix(1.8021 0 0 1 29.0493 114.5005)" fill="#F2F2F2" font-family="'AvenirNextCondensed-MediumItalic'" font-size="24">&amp; DEV</text>
<text transform="matrix(1.4148 0 0 1 138.7861 132.7744)" fill="#4D4D4D" font-family="'AvenirNextCondensed-Heavy'" font-size="46">N</text>
<text transform="matrix(1.7161 0 0 1 12.0864 87.7246)" fill="#F2F2F2" font-family="'AvenirNextCondensed-MediumItalic'" font-size="24">DESIGN</text>
<text transform="matrix(1.4131 0 0 1 140.271 87.1074)" fill="#4D4D4D" font-family="'AvenirNextCondensed-Heavy'" font-size="46">U</text>
</svg>
